<mxfile host="Electron" modified="2024-02-16T08:13:35.682Z" agent="Mozilla/5.0 (Macintosh; Intel Mac OS X 10_15_7) AppleWebKit/537.36 (KHTML, like Gecko) draw.io/23.0.2 Chrome/120.0.6099.109 Electron/28.1.0 Safari/537.36" etag="KS5yQua0Gv8qRGn8uv_b" version="23.0.2" type="device">
  <diagram name="페이지-1" id="FXgc4IaI3PzC05easqxp">
    <mxGraphModel dx="1114" dy="894" grid="1" gridSize="10" guides="1" tooltips="1" connect="1" arrows="1" fold="1" page="1" pageScale="1" pageWidth="827" pageHeight="1169" math="0" shadow="0">
      <root>
        <mxCell id="0" />
        <mxCell id="1" parent="0" />
        <mxCell id="0EZbQXtyByrNO_Kt0cYs-1" value="" style="sketch=0;outlineConnect=0;fontColor=#232F3E;gradientColor=none;fillColor=#232F3D;strokeColor=none;dashed=0;verticalLabelPosition=bottom;verticalAlign=top;align=center;html=1;fontSize=12;fontStyle=0;aspect=fixed;pointerEvents=1;shape=mxgraph.aws4.user;" vertex="1" parent="1">
          <mxGeometry x="90" y="200" width="40" height="40" as="geometry" />
        </mxCell>
        <mxCell id="0EZbQXtyByrNO_Kt0cYs-12" style="edgeStyle=orthogonalEdgeStyle;rounded=0;orthogonalLoop=1;jettySize=auto;html=1;endArrow=block;endFill=1;" edge="1" parent="1" source="0EZbQXtyByrNO_Kt0cYs-4" target="0EZbQXtyByrNO_Kt0cYs-7">
          <mxGeometry relative="1" as="geometry" />
        </mxCell>
        <mxCell id="0EZbQXtyByrNO_Kt0cYs-13" style="rounded=0;orthogonalLoop=1;jettySize=auto;html=1;entryX=0;entryY=0.5;entryDx=0;entryDy=0;exitX=1;exitY=0.5;exitDx=0;exitDy=0;exitPerimeter=0;" edge="1" parent="1" source="0EZbQXtyByrNO_Kt0cYs-4" target="0EZbQXtyByrNO_Kt0cYs-6">
          <mxGeometry relative="1" as="geometry" />
        </mxCell>
        <mxCell id="0EZbQXtyByrNO_Kt0cYs-4" value="API Gateway 2" style="sketch=0;points=[[0,0,0],[0.25,0,0],[0.5,0,0],[0.75,0,0],[1,0,0],[0,1,0],[0.25,1,0],[0.5,1,0],[0.75,1,0],[1,1,0],[0,0.25,0],[0,0.5,0],[0,0.75,0],[1,0.25,0],[1,0.5,0],[1,0.75,0]];outlineConnect=0;fontColor=#232F3E;fillColor=#E7157B;strokeColor=#ffffff;dashed=0;verticalLabelPosition=bottom;verticalAlign=top;align=center;html=1;fontSize=12;fontStyle=0;aspect=fixed;shape=mxgraph.aws4.resourceIcon;resIcon=mxgraph.aws4.api_gateway;" vertex="1" parent="1">
          <mxGeometry x="220" y="260" width="40" height="40" as="geometry" />
        </mxCell>
        <mxCell id="0EZbQXtyByrNO_Kt0cYs-10" style="edgeStyle=orthogonalEdgeStyle;rounded=0;orthogonalLoop=1;jettySize=auto;html=1;entryX=0;entryY=0.5;entryDx=0;entryDy=0;endArrow=block;endFill=1;" edge="1" parent="1" source="0EZbQXtyByrNO_Kt0cYs-5" target="0EZbQXtyByrNO_Kt0cYs-6">
          <mxGeometry relative="1" as="geometry" />
        </mxCell>
        <mxCell id="0EZbQXtyByrNO_Kt0cYs-11" style="rounded=0;orthogonalLoop=1;jettySize=auto;html=1;entryX=0;entryY=0.5;entryDx=0;entryDy=0;exitX=1;exitY=0.5;exitDx=0;exitDy=0;exitPerimeter=0;endArrow=block;endFill=1;" edge="1" parent="1" source="0EZbQXtyByrNO_Kt0cYs-5" target="0EZbQXtyByrNO_Kt0cYs-7">
          <mxGeometry relative="1" as="geometry" />
        </mxCell>
        <mxCell id="0EZbQXtyByrNO_Kt0cYs-5" value="API Gateway 1" style="sketch=0;points=[[0,0,0],[0.25,0,0],[0.5,0,0],[0.75,0,0],[1,0,0],[0,1,0],[0.25,1,0],[0.5,1,0],[0.75,1,0],[1,1,0],[0,0.25,0],[0,0.5,0],[0,0.75,0],[1,0.25,0],[1,0.5,0],[1,0.75,0]];outlineConnect=0;fontColor=#232F3E;fillColor=#E7157B;strokeColor=#ffffff;dashed=0;verticalLabelPosition=bottom;verticalAlign=top;align=center;html=1;fontSize=12;fontStyle=0;aspect=fixed;shape=mxgraph.aws4.resourceIcon;resIcon=mxgraph.aws4.api_gateway;" vertex="1" parent="1">
          <mxGeometry x="220" y="130" width="40" height="40" as="geometry" />
        </mxCell>
        <mxCell id="0EZbQXtyByrNO_Kt0cYs-6" value="서비스 A" style="rounded=0;whiteSpace=wrap;html=1;" vertex="1" parent="1">
          <mxGeometry x="340" y="125" width="120" height="50" as="geometry" />
        </mxCell>
        <mxCell id="0EZbQXtyByrNO_Kt0cYs-7" value="서비스 B" style="rounded=0;whiteSpace=wrap;html=1;" vertex="1" parent="1">
          <mxGeometry x="340" y="255" width="120" height="50" as="geometry" />
        </mxCell>
        <mxCell id="0EZbQXtyByrNO_Kt0cYs-8" value="/users" style="text;html=1;strokeColor=none;fillColor=none;align=center;verticalAlign=middle;whiteSpace=wrap;rounded=0;" vertex="1" parent="1">
          <mxGeometry x="460" y="125" width="60" height="30" as="geometry" />
        </mxCell>
        <mxCell id="0EZbQXtyByrNO_Kt0cYs-9" value="/sales&lt;br&gt;&lt;div style=&quot;&quot;&gt;&lt;span style=&quot;background-color: initial;&quot;&gt;/products&lt;/span&gt;&lt;/div&gt;" style="text;html=1;strokeColor=none;fillColor=none;align=left;verticalAlign=middle;whiteSpace=wrap;rounded=0;" vertex="1" parent="1">
          <mxGeometry x="471" y="255" width="60" height="30" as="geometry" />
        </mxCell>
        <mxCell id="0EZbQXtyByrNO_Kt0cYs-14" style="edgeStyle=orthogonalEdgeStyle;rounded=0;orthogonalLoop=1;jettySize=auto;html=1;entryX=0;entryY=0.5;entryDx=0;entryDy=0;entryPerimeter=0;endArrow=block;endFill=1;" edge="1" parent="1" source="0EZbQXtyByrNO_Kt0cYs-1" target="0EZbQXtyByrNO_Kt0cYs-5">
          <mxGeometry relative="1" as="geometry" />
        </mxCell>
        <mxCell id="0EZbQXtyByrNO_Kt0cYs-15" style="edgeStyle=orthogonalEdgeStyle;rounded=0;orthogonalLoop=1;jettySize=auto;html=1;entryX=0;entryY=0.5;entryDx=0;entryDy=0;entryPerimeter=0;endArrow=block;endFill=1;" edge="1" parent="1" source="0EZbQXtyByrNO_Kt0cYs-1" target="0EZbQXtyByrNO_Kt0cYs-4">
          <mxGeometry relative="1" as="geometry" />
        </mxCell>
        <mxCell id="0EZbQXtyByrNO_Kt0cYs-16" value="denyAll()&lt;br&gt;/products" style="text;html=1;strokeColor=#b85450;fillColor=#f8cecc;align=center;verticalAlign=middle;whiteSpace=wrap;rounded=0;" vertex="1" parent="1">
          <mxGeometry x="210" y="95" width="60" height="30" as="geometry" />
        </mxCell>
        <mxCell id="0EZbQXtyByrNO_Kt0cYs-17" value="denyAll()&lt;br&gt;/sales" style="text;html=1;strokeColor=#b85450;fillColor=#f8cecc;align=center;verticalAlign=middle;whiteSpace=wrap;rounded=0;" vertex="1" parent="1">
          <mxGeometry x="210" y="330" width="60" height="30" as="geometry" />
        </mxCell>
        <mxCell id="0EZbQXtyByrNO_Kt0cYs-18" value="Gateway 1 은 /users, /sales 엔드포인트만 허용" style="text;html=1;strokeColor=none;fillColor=none;align=center;verticalAlign=middle;whiteSpace=wrap;rounded=0;" vertex="1" parent="1">
          <mxGeometry x="110" y="50" width="286" height="30" as="geometry" />
        </mxCell>
        <mxCell id="0EZbQXtyByrNO_Kt0cYs-19" value="Gateway 2 은 /users, /products 엔드포인트만 허용" style="text;html=1;strokeColor=none;fillColor=none;align=center;verticalAlign=middle;whiteSpace=wrap;rounded=0;" vertex="1" parent="1">
          <mxGeometry x="110" y="380" width="286" height="30" as="geometry" />
        </mxCell>
      </root>
    </mxGraphModel>
  </diagram>
</mxfile>
